<?xml version="1.0" standalone="no"?>
<!DOCTYPE svg PUBLIC "-//W3C//DTD SVG 20010904//EN"
 "http://www.w3.org/TR/2001/REC-SVG-20010904/DTD/svg10.dtd">
<svg version="1.0" xmlns="http://www.w3.org/2000/svg"
 width="500.000000pt" height="500.000000pt" viewBox="0 0 500.000000 500.000000"
 preserveAspectRatio="xMidYMid meet">

<g transform="translate(0.000000,500.000000) scale(0.100000,-0.100000)"
fill="#5b2d7c" stroke="none">
<path d="M2360 3674 c-315 -57 -496 -148 -695 -348 -158 -158 -252 -322 -307
-535 -29 -107 -31 -130 -32 -286 0 -152 3 -181 26 -276 15 -58 44 -146 65
-195 127 -293 394 -543 695 -650 l38 -13 8 32 8 32 -76 30 c-360 144 -613 454
-685 840 -23 123 -17 347 13 461 107 404 402 704 800 812 88 24 114 26 282 26
168 0 194 -2 282 -26 423 -115 733 -451 813 -883 22 -118 16 -344 -12 -457
l-20 -76 21 -6 c40 -11 44 -6 67 87 19 77 22 119 22 262 0 156 -3 180 -30 285
-32 123 -95 264 -165 370 -63 97 -228 258 -333 326 -192 125 -381 183 -615
189 -80 2 -156 2 -170 -1z"/>
<path d="M1890 2997 c-48 -24 -50 -37 -50 -424 0 -216 4 -372 10 -388 19 -50
58 -57 312 -53 l230 3 24 28 c21 25 24 38 24 108 l0 79 -50 0 -50 0 0 -55 0
-55 -197 0 -198 0 3 334 3 334 192 -1 192 -2 3 -222 2 -223 50 0 50 0 0 240
c0 254 -4 280 -47 299 -35 16 -470 15 -503 -2z"/>
<path d="M2589 2981 c-16 -16 -29 -39 -29 -50 0 -21 3 -21 300 -21 l300 0 0
50 0 50 -271 0 -271 0 -29 -29z"/>
<path d="M2560 2684 c0 -103 1 -106 29 -135 l29 -29 216 0 215 0 3 -140 3
-140 -247 0 -248 0 0 -55 0 -55 254 0 c159 0 265 4 285 11 54 19 61 47 61 238
0 173 -7 212 -39 228 -9 4 -115 10 -236 13 l-220 5 -3 83 -3 82 -49 0 -50 0 0
-106z"/>
<path d="M2060 2405 l0 -55 135 0 135 0 0 55 0 55 -135 0 -135 0 0 -55z"/>
<path d="M3400 2090 c-11 -21 -20 -46 -20 -54 0 -15 125 -86 150 -86 28 0 3
21 -60 49 -38 17 -70 36 -70 41 0 14 29 70 36 70 2 0 21 -8 42 -19 67 -34 112
-50 112 -40 0 10 -136 79 -157 79 -7 0 -22 -18 -33 -40z"/>
<path d="M3276 1888 c-20 -23 -36 -45 -36 -50 0 -13 132 -118 142 -112 5 3
-21 30 -57 59 l-66 54 29 32 29 33 66 -52 c36 -29 68 -49 71 -44 4 7 -93 93
-130 115 -8 4 -25 -8 -48 -35z"/>
<path d="M3365 1809 c-10 -15 3 -25 16 -12 7 7 7 13 1 17 -6 3 -14 1 -17 -5z"/>
<path d="M3136 1751 c-4 -5 -2 -12 3 -15 5 -4 12 -2 15 3 4 5 2 12 -3 15 -5 4
-12 2 -15 -3z"/>
<path d="M3170 1711 c0 -11 76 -102 85 -101 12 0 5 14 -32 60 -37 48 -53 60
-53 41z"/>
<path d="M2988 1646 c-21 -11 -38 -26 -38 -33 0 -12 85 30 95 48 10 15 -18 8
-57 -15z"/>
<path d="M3016 1603 c-6 -7 37 -87 60 -113 12 -13 14 -13 14 0 -1 21 -66 121
-74 113z"/>
<path d="M2773 1553 c-24 -8 -43 -19 -43 -24 0 -5 1 -9 3 -9 12 0 104 34 112
41 14 14 -24 9 -72 -8z"/>
<path d="M2256 1518 c-3 -7 -10 -46 -16 -87 -14 -84 -13 -85 58 -95 32 -4 48
-2 54 6 11 18 10 28 -2 28 -5 0 -10 -5 -10 -11 0 -7 -14 -8 -42 -4 -24 4 -44
8 -46 10 -1 1 3 35 9 75 l12 72 30 -6 c16 -3 36 -6 44 -6 11 0 12 -11 7 -50
-5 -34 -3 -50 5 -50 6 0 11 11 11 24 0 13 3 37 6 54 7 33 4 35 -73 47 -32 5
-44 3 -47 -7z"/>
<path d="M2497 1502 c-9 -14 6 -182 16 -182 6 0 8 30 4 84 l-6 84 40 4 c22 2
42 1 45 -3 2 -4 7 -41 11 -83 3 -42 10 -76 14 -76 11 0 11 22 2 113 l-6 67
-58 0 c-32 0 -60 -3 -62 -8z"/>
<path d="M2740 1489 c0 -6 5 -19 10 -29 9 -18 13 -18 56 -3 25 8 47 13 50 10
3 -2 6 -17 7 -32 2 -25 -3 -30 -47 -45 -66 -22 -44 -34 23 -12 l53 16 -7 41
c-8 53 -16 59 -61 46 -52 -15 -64 -14 -64 4 0 8 -4 15 -10 15 -5 0 -10 -5 -10
-11z"/>
<path d="M2290 1390 c20 -13 50 -13 50 0 0 6 -15 10 -32 10 -25 0 -29 -3 -18
-10z"/>
<path d="M2550 1380 c0 -5 7 -10 15 -10 8 0 15 5 15 10 0 6 -7 10 -15 10 -8 0
-15 -4 -15 -10z"/>
</g>
</svg>
